<?xml version="1.0" standalone="no"?>
<!DOCTYPE svg PUBLIC "-//W3C//DTD SVG 20010904//EN"
 "http://www.w3.org/TR/2001/REC-SVG-20010904/DTD/svg10.dtd">
<svg version="1.0" xmlns="http://www.w3.org/2000/svg"
 width="500.000000pt" height="500.000000pt" viewBox="0 0 500.000000 500.000000"
 preserveAspectRatio="xMidYMid meet">

<g transform="translate(0.000000,500.000000) scale(0.100000,-0.100000)"
fill="#000000" stroke="none">
<path d="M1075 2907 c-168 -43 -251 -151 -263 -339 -12 -203 51 -328 198 -397
51 -24 65 -26 190 -26 146 0 189 12 266 70 41 31 92 136 96 195 l3 45 -113 3
-112 3 0 -24 c0 -31 -39 -88 -70 -104 -35 -18 -105 -16 -141 3 -48 24 -69 82
-69 192 0 57 5 105 14 126 51 121 229 104 255 -25 l7 -34 114 0 115 0 -3 40
c-9 119 -78 213 -188 255 -72 28 -223 36 -299 17z"/>
<path d="M2800 2906 c-193 -42 -290 -185 -278 -411 10 -183 98 -297 263 -341
28 -8 68 -14 90 -14 37 -1 45 -6 95 -65 l55 -64 145 -1 145 0 -78 78 c-42 42
-77 82 -76 87 0 6 22 27 49 47 93 71 142 222 120 376 -5 41 -19 94 -29 117
-24 54 -83 119 -137 151 -82 48 -245 66 -364 40z m209 -189 c63 -30 93 -137
74 -254 -18 -101 -65 -143 -161 -143 -60 0 -109 29 -134 80 -27 53 -25 199 3
257 37 76 131 102 218 60z"/>
<path d="M1650 2904 c0 -3 54 -84 119 -180 l120 -174 -135 -200 -135 -200 138
0 138 1 55 96 c89 156 75 154 155 19 l70 -116 148 0 148 0 -136 199 -135 200
120 174 c66 96 120 178 120 181 0 3 -60 6 -133 6 l-132 0 -60 -99 c-50 -85
-61 -97 -70 -83 -6 9 -33 54 -59 100 l-48 82 -144 0 c-79 0 -144 -3 -144 -6z"/>
<path d="M3470 2531 l0 -381 271 0 c295 0 325 4 384 52 51 42 69 82 68 154 -1
87 -38 148 -108 174 l-29 11 39 22 c55 31 80 78 80 153 0 78 -32 131 -102 165
-46 23 -57 24 -325 27 l-278 3 0 -380z m442 192 c10 -9 18 -30 18 -49 0 -51
-27 -64 -132 -64 l-88 0 0 65 0 65 92 0 c71 0 95 -4 110 -17z m22 -289 c21
-20 20 -63 -1 -86 -14 -15 -32 -18 -120 -18 l-103 0 0 60 0 60 104 0 c82 0
108 -3 120 -16z"/>
<path d="M762 2038 l3 -53 1043 -3 1042 -2 0 55 0 55 -1046 0 -1045 0 3 -52z"/>
<path d="M3430 2035 l0 -55 403 2 402 3 3 53 3 52 -405 0 -406 0 0 -55z"/>
<path d="M1730 1851 c-14 -27 -13 -144 2 -159 21 -21 57 -14 70 13 8 18 8 29
1 36 -7 7 -12 2 -17 -16 -5 -18 -12 -25 -24 -23 -14 3 -17 15 -17 73 0 58 3
70 17 73 12 2 19 -5 24 -22 3 -14 10 -23 15 -20 12 7 1 46 -15 56 -20 14 -45
8 -56 -11z"/>
<path d="M1856 1858 c-5 -13 -36 -166 -36 -174 0 -14 19 0 23 16 3 12 14 20
27 20 13 0 24 -8 27 -20 7 -25 23 -27 22 -2 0 9 -8 50 -17 91 -16 70 -36 100
-46 69z m27 -85 c6 -29 4 -33 -14 -33 -15 0 -19 5 -15 16 3 9 6 27 6 42 0 34
15 17 23 -25z"/>
<path d="M1940 1775 c0 -57 4 -95 10 -95 6 0 10 18 10 41 0 33 3 40 18 37 12
-2 18 -14 20 -41 2 -20 7 -37 12 -37 12 0 10 162 -2 178 -6 6 -23 12 -39 12
l-29 0 0 -95z m55 40 c0 -20 -6 -31 -17 -33 -15 -3 -18 4 -18 33 0 29 3 36 18
33 11 -2 17 -13 17 -33z"/>
<path d="M2057 1824 c15 -45 13 -68 -13 -131 -3 -7 -1 -13 5 -13 5 0 15 16 22
35 16 43 25 44 34 5 6 -29 21 -47 31 -37 3 2 -3 23 -12 46 -16 42 -14 64 12
129 3 6 1 12 -4 12 -5 0 -17 -17 -25 -37 l-15 -38 -15 38 c-23 53 -39 46 -20
-9z"/>
<path d="M2212 1858 c-17 -17 -16 -167 1 -172 6 -3 26 -7 42 -9 l30 -6 -4 87
c-1 48 -8 93 -13 100 -13 15 -40 16 -56 0z m46 -86 c3 -67 1 -72 -18 -72 -18
0 -20 6 -20 68 0 38 3 72 7 76 18 17 28 -7 31 -72z"/>
<path d="M2306 1863 c-10 -10 -7 -129 4 -157 10 -28 47 -35 68 -14 14 14 17
178 2 178 -5 0 -10 -37 -12 -82 -3 -70 -6 -83 -20 -86 -16 -3 -18 6 -18 77 0
74 -7 100 -24 84z"/>
<path d="M2410 1775 c0 -57 4 -95 10 -95 6 0 10 38 10 95 0 57 -4 95 -10 95
-6 0 -10 -38 -10 -95z"/>
<path d="M2462 1858 c-7 -7 -12 -41 -12 -84 0 -78 11 -98 52 -92 18 2 24 10
26 36 2 18 -1 32 -7 32 -6 0 -11 -12 -11 -26 0 -19 -4 -25 -17 -22 -15 3 -18
15 -18 72 0 76 16 98 37 49 11 -27 12 -27 16 -5 7 42 -37 69 -66 40z"/>
<path d="M2558 1864 c-12 -11 -10 -184 2 -184 6 0 10 12 10 28 0 50 15 56 35
12 10 -22 22 -40 27 -40 11 0 11 2 -12 55 -20 46 -20 46 0 85 22 43 24 50 13
50 -5 0 -19 -19 -33 -43 l-25 -42 -5 43 c-3 24 -8 40 -12 36z"/>
<path d="M2707 1863 c-4 -3 -7 -46 -7 -95 l0 -88 33 0 c18 0 38 5 45 12 15 15
16 60 1 75 -8 8 -8 17 0 31 15 28 14 38 -5 56 -16 16 -55 22 -67 9z m51 -46
c3 -22 -1 -27 -17 -27 -15 0 -21 6 -21 23 0 46 33 49 38 4z m7 -82 c0 -23 -5
-31 -22 -33 -19 -3 -23 1 -23 26 0 33 8 44 30 40 9 -2 15 -14 15 -33z"/>
<path d="M2835 1848 c-20 -82 -31 -168 -23 -168 5 0 12 9 15 20 3 13 14 20 29
20 17 0 24 -6 24 -20 0 -11 5 -20 10 -20 13 0 13 11 -5 103 -8 43 -15 81 -15
83 0 2 -7 4 -15 4 -8 0 -17 -10 -20 -22z m32 -105 c-3 -3 -12 -3 -19 -1 -11 2
-12 12 -4 48 l9 45 9 -43 c5 -24 7 -46 5 -49z"/>
<path d="M2915 1860 c-3 -5 3 -10 14 -10 20 0 21 -6 21 -85 0 -50 4 -85 10
-85 6 0 10 35 10 85 0 69 3 85 15 85 8 0 15 5 15 10 0 6 -18 10 -39 10 -22 0
-43 -4 -46 -10z"/>
<path d="M3010 1860 c0 -5 7 -10 15 -10 12 0 15 -16 15 -85 0 -50 4 -85 10
-85 6 0 10 34 10 81 0 72 2 81 20 86 36 9 21 23 -25 23 -25 0 -45 -4 -45 -10z"/>
<path d="M3118 1864 c-5 -4 -8 -47 -8 -96 l0 -88 40 0 c22 0 40 5 40 10 0 6
-13 10 -30 10 l-29 0 -3 86 c-2 47 -6 82 -10 78z"/>
<path d="M3207 1863 c-4 -3 -7 -46 -7 -95 l0 -88 40 0 c22 0 40 5 40 10 0 6
-13 10 -30 10 -27 0 -30 3 -30 30 0 23 5 30 19 30 29 0 35 18 9 22 -18 2 -23
9 -23 33 0 25 4 30 28 33 15 2 27 8 27 13 0 10 -63 13 -73 2z"/>
</g>
</svg>
